<svg width="900" height="280" viewBox="0 0 900 280" xmlns="http://www.w3.org/2000/svg">
  <defs>
    <linearGradient id="bgGrad" x1="0%" y1="0%" x2="100%" y2="100%">
      <stop offset="0%" stop-color="#020c09"/>
      <stop offset="40%" stop-color="#051510"/>
      <stop offset="100%" stop-color="#071a14"/>
    </linearGradient>
    <radialGradient id="atmos1" cx="20%" cy="50%" r="50%">
      <stop offset="0%" stop-color="#1a6050" stop-opacity="0.35"/>
      <stop offset="100%" stop-color="#020c09" stop-opacity="0"/>
    </radialGradient>
    <radialGradient id="atmos2" cx="55%" cy="60%" r="45%">
      <stop offset="0%" stop-color="#0d3028" stop-opacity="0.4"/>
      <stop offset="100%" stop-color="#020c09" stop-opacity="0"/>
    </radialGradient>
    <radialGradient id="atmos3" cx="82%" cy="45%" r="45%">
      <stop offset="0%" stop-color="#164038" stop-opacity="0.28"/>
      <stop offset="100%" stop-color="#020c09" stop-opacity="0"/>
    </radialGradient>
    <filter id="textGlow" x="-25%" y="-25%" width="150%" height="150%">
      <feGaussianBlur in="SourceGraphic" stdDeviation="7" result="blur1"/>
      <feGaussianBlur in="SourceGraphic" stdDeviation="3" result="blur2"/>
      <feMerge>
        <feMergeNode in="blur1"/>
        <feMergeNode in="blur2"/>
        <feMergeNode in="SourceGraphic"/>
      </feMerge>
    </filter>
    <filter id="softGlow" x="-40%" y="-40%" width="180%" height="180%">
      <feGaussianBlur in="SourceGraphic" stdDeviation="3" result="blur"/>
      <feMerge>
        <feMergeNode in="blur"/>
        <feMergeNode in="SourceGraphic"/>
      </feMerge>
    </filter>
  </defs>

  <!-- BACKGROUND -->
  <rect width="900" height="280" fill="url(#bgGrad)"/>
  <rect width="900" height="280" fill="url(#atmos1)"/>
  <rect width="900" height="280" fill="url(#atmos2)"/>
  <rect width="900" height="280" fill="url(#atmos3)"/>
  <circle cx="180" cy="110" r="120" fill="#1a5040" opacity="0.07"/>
  <circle cx="700" cy="160" r="140" fill="#0d3028" opacity="0.09"/>

  <!-- BORDER FRAME -->
  <rect x="0" y="0" width="900" height="280" fill="none" stroke="#2db88a" stroke-width="1.5" opacity="0.45"/>
  <!-- Inner subtle border -->
  <rect x="8" y="8" width="884" height="264" fill="none" stroke="#1a5040" stroke-width="0.5" opacity="0.3"/>

  <!-- CORNER ORNAMENTS -->
  <!-- Top-left -->
  <g filter="url(#softGlow)">
    <path d="M0,50 L0,0 L50,0" fill="none" stroke="#7fffd4" stroke-width="1.8" opacity="0.9"/>
    <circle cx="0" cy="0" r="5" fill="#7fffd4" opacity="0.9"/>
    <circle cx="55" cy="0" r="2" fill="#2db88a" opacity="0.7"/>
    <circle cx="70" cy="0" r="1.3" fill="#2db88a" opacity="0.5"/>
    <circle cx="0" cy="55" r="2" fill="#2db88a" opacity="0.7"/>
    <circle cx="0" cy="70" r="1.3" fill="#2db88a" opacity="0.5"/>
    <line x1="15" y1="0" x2="50" y2="0" stroke="#7fffd4" stroke-width="0.5" opacity="0.4"/>
    <line x1="0" y1="15" x2="0" y2="50" stroke="#7fffd4" stroke-width="0.5" opacity="0.4"/>
  </g>
  <!-- Top-right -->
  <g filter="url(#softGlow)">
    <path d="M850,0 L900,0 L900,50" fill="none" stroke="#7fffd4" stroke-width="1.8" opacity="0.9"/>
    <circle cx="900" cy="0" r="5" fill="#7fffd4" opacity="0.9"/>
    <circle cx="845" cy="0" r="2" fill="#2db88a" opacity="0.7"/>
    <circle cx="830" cy="0" r="1.3" fill="#2db88a" opacity="0.5"/>
    <circle cx="900" cy="55" r="2" fill="#2db88a" opacity="0.7"/>
    <circle cx="900" cy="70" r="1.3" fill="#2db88a" opacity="0.5"/>
  </g>
  <!-- Bottom-left -->
  <g filter="url(#softGlow)">
    <path d="M0,230 L0,280 L50,280" fill="none" stroke="#7fffd4" stroke-width="1.8" opacity="0.9"/>
    <circle cx="0" cy="280" r="5" fill="#7fffd4" opacity="0.9"/>
    <circle cx="55" cy="280" r="2" fill="#2db88a" opacity="0.7"/>
    <circle cx="0" cy="225" r="2" fill="#2db88a" opacity="0.7"/>
  </g>
  <!-- Bottom-right -->
  <g filter="url(#softGlow)">
    <path d="M850,280 L900,280 L900,230" fill="none" stroke="#7fffd4" stroke-width="1.8" opacity="0.9"/>
    <circle cx="900" cy="280" r="5" fill="#7fffd4" opacity="0.9"/>
    <circle cx="845" cy="280" r="2" fill="#2db88a" opacity="0.7"/>
    <circle cx="900" cy="225" r="2" fill="#2db88a" opacity="0.7"/>
  </g>

  <!-- PARTICLES (SMIL animated) -->
  <circle cx="45" cy="60" r="1.5" fill="#7fffd4" opacity="0.8"><animate attributeName="cy" values="60;44;60" dur="3.2s" repeatCount="indefinite"/><animate attributeName="opacity" values="0.8;0.25;0.8" dur="3.2s" repeatCount="indefinite"/></circle>
  <circle cx="120" cy="140" r="2" fill="#5dcba4" opacity="0.6"><animate attributeName="cy" values="140;120;140" dur="4.1s" begin="0.5s" repeatCount="indefinite"/><animate attributeName="opacity" values="0.6;1;0.6" dur="4.1s" begin="0.5s" repeatCount="indefinite"/></circle>
  <circle cx="80" cy="200" r="1" fill="#b0ffe8" opacity="0.5"><animate attributeName="cy" values="200;183;200" dur="2.8s" begin="1s" repeatCount="indefinite"/><animate attributeName="opacity" values="0.5;0.9;0.5" dur="2.8s" begin="1s" repeatCount="indefinite"/></circle>
  <circle cx="180" cy="80" r="1.8" fill="#7fffd4" opacity="0.7"><animate attributeName="cy" values="80;62;80" dur="3.7s" begin="0.3s" repeatCount="indefinite"/><animate attributeName="opacity" values="0.7;0.2;0.7" dur="3.7s" begin="0.3s" repeatCount="indefinite"/></circle>
  <circle cx="220" cy="160" r="1.2" fill="#40c090" opacity="0.6"><animate attributeName="cy" values="160;144;160" dur="4.5s" begin="1.5s" repeatCount="indefinite"/><animate attributeName="opacity" values="0.6;1;0.6" dur="4.5s" begin="1.5s" repeatCount="indefinite"/></circle>
  <circle cx="290" cy="50" r="2.5" fill="#7fffd4" opacity="0.5"><animate attributeName="cy" values="50;30;50" dur="5s" begin="0.8s" repeatCount="indefinite"/><animate attributeName="opacity" values="0.5;0.9;0.5" dur="5s" begin="0.8s" repeatCount="indefinite"/><animate attributeName="r" values="2.5;3.2;2.5" dur="5s" begin="0.8s" repeatCount="indefinite"/></circle>
  <circle cx="350" cy="225" r="1" fill="#b0ffe8" opacity="0.4"><animate attributeName="cy" values="225;210;225" dur="3.1s" begin="2s" repeatCount="indefinite"/><animate attributeName="opacity" values="0.4;0.8;0.4" dur="3.1s" begin="2s" repeatCount="indefinite"/></circle>
  <circle cx="380" cy="100" r="1.5" fill="#5dcba4" opacity="0.7"><animate attributeName="cy" values="100;83;100" dur="3.9s" begin="0.2s" repeatCount="indefinite"/><animate attributeName="opacity" values="0.7;0.3;0.7" dur="3.9s" begin="0.2s" repeatCount="indefinite"/></circle>
  <circle cx="430" cy="240" r="2" fill="#7fffd4" opacity="0.45"><animate attributeName="cy" values="240;224;240" dur="4.3s" begin="1.2s" repeatCount="indefinite"/><animate attributeName="opacity" values="0.45;0.85;0.45" dur="4.3s" begin="1.2s" repeatCount="indefinite"/></circle>
  <circle cx="470" cy="60" r="1.3" fill="#40c090" opacity="0.6"><animate attributeName="cy" values="60;43;60" dur="2.9s" begin="0.7s" repeatCount="indefinite"/><animate attributeName="opacity" values="0.6;1;0.6" dur="2.9s" begin="0.7s" repeatCount="indefinite"/></circle>
  <circle cx="520" cy="190" r="1.8" fill="#7fffd4" opacity="0.7"><animate attributeName="cy" values="190;172;190" dur="3.6s" begin="1.8s" repeatCount="indefinite"/><animate attributeName="opacity" values="0.7;0.2;0.7" dur="3.6s" begin="1.8s" repeatCount="indefinite"/></circle>
  <circle cx="560" cy="78" r="1" fill="#b0ffe8" opacity="0.4"><animate attributeName="cy" values="78;63;78" dur="4.8s" begin="0.4s" repeatCount="indefinite"/><animate attributeName="opacity" values="0.4;0.8;0.4" dur="4.8s" begin="0.4s" repeatCount="indefinite"/></circle>
  <circle cx="610" cy="130" r="2.2" fill="#7fffd4" opacity="0.6"><animate attributeName="cy" values="130;112;130" dur="3.4s" begin="1.1s" repeatCount="indefinite"/><animate attributeName="opacity" values="0.6;1;0.6" dur="3.4s" begin="1.1s" repeatCount="indefinite"/><animate attributeName="r" values="2.2;2.9;2.2" dur="3.4s" begin="1.1s" repeatCount="indefinite"/></circle>
  <circle cx="650" cy="210" r="1.5" fill="#5dcba4" opacity="0.5"><animate attributeName="cy" values="210;194;210" dur="4.2s" begin="0.6s" repeatCount="indefinite"/><animate attributeName="opacity" values="0.5;0.9;0.5" dur="4.2s" begin="0.6s" repeatCount="indefinite"/></circle>
  <circle cx="700" cy="55" r="1" fill="#7fffd4" opacity="0.8"><animate attributeName="cy" values="55;38;55" dur="3s" begin="1.4s" repeatCount="indefinite"/><animate attributeName="opacity" values="0.8;0.3;0.8" dur="3s" begin="1.4s" repeatCount="indefinite"/></circle>
  <circle cx="730" cy="170" r="2" fill="#40c090" opacity="0.6"><animate attributeName="cy" values="170;150;170" dur="4.7s" begin="0.9s" repeatCount="indefinite"/><animate attributeName="opacity" values="0.6;1;0.6" dur="4.7s" begin="0.9s" repeatCount="indefinite"/></circle>
  <circle cx="780" cy="100" r="1.8" fill="#7fffd4" opacity="0.7"><animate attributeName="cy" values="100;82;100" dur="3.3s" begin="1.7s" repeatCount="indefinite"/><animate attributeName="opacity" values="0.7;0.2;0.7" dur="3.3s" begin="1.7s" repeatCount="indefinite"/></circle>
  <circle cx="820" cy="50" r="1.2" fill="#b0ffe8" opacity="0.5"><animate attributeName="cy" values="50;33;50" dur="4s" begin="0.1s" repeatCount="indefinite"/><animate attributeName="opacity" values="0.5;0.9;0.5" dur="4s" begin="0.1s" repeatCount="indefinite"/></circle>
  <circle cx="860" cy="150" r="1.5" fill="#5dcba4" opacity="0.6"><animate attributeName="cy" values="150;133;150" dur="3.8s" begin="2.1s" repeatCount="indefinite"/><animate attributeName="opacity" values="0.6;1;0.6" dur="3.8s" begin="2.1s" repeatCount="indefinite"/></circle>
  <circle cx="150" cy="235" r="2.3" fill="#7fffd4" opacity="0.4"><animate attributeName="cy" values="235;218;235" dur="4.4s" begin="1.6s" repeatCount="indefinite"/><animate attributeName="opacity" values="0.4;0.8;0.4" dur="4.4s" begin="1.6s" repeatCount="indefinite"/><animate attributeName="r" values="2.3;3;2.3" dur="4.4s" begin="1.6s" repeatCount="indefinite"/></circle>
  <circle cx="330" cy="170" r="1" fill="#40c090" opacity="0.5"><animate attributeName="cy" values="170;155;170" dur="2.7s" begin="0.5s" repeatCount="indefinite"/><animate attributeName="opacity" values="0.5;1;0.5" dur="2.7s" begin="0.5s" repeatCount="indefinite"/></circle>
  <circle cx="490" cy="38" r="1.7" fill="#7fffd4" opacity="0.6"><animate attributeName="cy" values="38;22;38" dur="5.1s" begin="1.3s" repeatCount="indefinite"/><animate attributeName="opacity" values="0.6;1;0.6" dur="5.1s" begin="1.3s" repeatCount="indefinite"/></circle>
  <circle cx="580" cy="232" r="1.3" fill="#b0ffe8" opacity="0.5"><animate attributeName="cy" values="232;217;232" dur="3.5s" begin="0.8s" repeatCount="indefinite"/><animate attributeName="opacity" values="0.5;0.9;0.5" dur="3.5s" begin="0.8s" repeatCount="indefinite"/></circle>
  <circle cx="670" cy="90" r="2" fill="#7fffd4" opacity="0.7"><animate attributeName="cy" values="90;72;90" dur="4.6s" begin="2.2s" repeatCount="indefinite"/><animate attributeName="opacity" values="0.7;0.2;0.7" dur="4.6s" begin="2.2s" repeatCount="indefinite"/></circle>
  <circle cx="760" cy="205" r="1.5" fill="#5dcba4" opacity="0.5"><animate attributeName="cy" values="205;189;205" dur="3.2s" begin="0.3s" repeatCount="indefinite"/><animate attributeName="opacity" values="0.5;0.9;0.5" dur="3.2s" begin="0.3s" repeatCount="indefinite"/></circle>
  <circle cx="100" cy="112" r="1" fill="#7fffd4" opacity="0.6"><animate attributeName="cy" values="112;97;112" dur="4.1s" begin="1.9s" repeatCount="indefinite"/><animate attributeName="opacity" values="0.6;1;0.6" dur="4.1s" begin="1.9s" repeatCount="indefinite"/></circle>
  <circle cx="260" cy="40" r="2.2" fill="#7fffd4" opacity="0.5"><animate attributeName="cy" values="40;22;40" dur="3.7s" begin="0.6s" repeatCount="indefinite"/><animate attributeName="opacity" values="0.5;0.9;0.5" dur="3.7s" begin="0.6s" repeatCount="indefinite"/><animate attributeName="r" values="2.2;2.9;2.2" dur="3.7s" begin="0.6s" repeatCount="indefinite"/></circle>
  <circle cx="410" cy="178" r="1.4" fill="#40c090" opacity="0.6"><animate attributeName="cy" values="178;162;178" dur="2.9s" begin="1.1s" repeatCount="indefinite"/><animate attributeName="opacity" values="0.6;1;0.6" dur="2.9s" begin="1.1s" repeatCount="indefinite"/></circle>
  <circle cx="540" cy="128" r="1.8" fill="#7fffd4" opacity="0.7"><animate attributeName="cy" values="128;111;128" dur="4.3s" begin="0.4s" repeatCount="indefinite"/><animate attributeName="opacity" values="0.7;0.2;0.7" dur="4.3s" begin="0.4s" repeatCount="indefinite"/></circle>
  <circle cx="850" cy="222" r="1.2" fill="#b0ffe8" opacity="0.5"><animate attributeName="cy" values="222;207;222" dur="3.9s" begin="1.7s" repeatCount="indefinite"/><animate attributeName="opacity" values="0.5;0.9;0.5" dur="3.9s" begin="1.7s" repeatCount="indefinite"/></circle>
  <circle cx="30" cy="170" r="2" fill="#5dcba4" opacity="0.6"><animate attributeName="cy" values="170;152;170" dur="5.2s" begin="0.9s" repeatCount="indefinite"/><animate attributeName="opacity" values="0.6;1;0.6" dur="5.2s" begin="0.9s" repeatCount="indefinite"/></circle>
  <circle cx="310" cy="110" r="1.6" fill="#7fffd4" opacity="0.5"><animate attributeName="cy" values="110;93;110" dur="4.8s" begin="2.3s" repeatCount="indefinite"/><animate attributeName="opacity" values="0.5;0.9;0.5" dur="4.8s" begin="2.3s" repeatCount="indefinite"/></circle>
  <circle cx="620" cy="48" r="1.1" fill="#7fffd4" opacity="0.6"><animate attributeName="cy" values="48;33;48" dur="3.4s" begin="0.7s" repeatCount="indefinite"/><animate attributeName="opacity" values="0.6;1;0.6" dur="3.4s" begin="0.7s" repeatCount="indefinite"/></circle>
  <circle cx="880" cy="102" r="1.9" fill="#40c090" opacity="0.5"><animate attributeName="cy" values="102;84;102" dur="4.5s" begin="1.4s" repeatCount="indefinite"/><animate attributeName="opacity" values="0.5;0.9;0.5" dur="4.5s" begin="1.4s" repeatCount="indefinite"/></circle>
  <circle cx="200" cy="258" r="1.3" fill="#7fffd4" opacity="0.4"><animate attributeName="cy" values="258;243;258" dur="3.1s" begin="0.2s" repeatCount="indefinite"/><animate attributeName="opacity" values="0.4;0.8;0.4" dur="3.1s" begin="0.2s" repeatCount="indefinite"/></circle>

  <!-- BOTANICAL DECORATIONS -->
  <g opacity="0.45" stroke="#1a6050" stroke-width="0.9" fill="none">
    <path d="M18,280 Q38,232 34,202 Q30,172 52,152"/>
    <path d="M29,242 Q4,222 12,202"/>
    <path d="M32,217 Q58,197 54,177"/>
    <path d="M36,192 Q12,177 20,157"/>
    <path d="M43,165 Q70,150 67,130"/>
    <path d="M40,148 Q22,138 28,122"/>
  </g>
  <g opacity="0.45" stroke="#1a6050" stroke-width="0.9" fill="none">
    <path d="M882,280 Q862,232 866,202 Q870,172 848,152"/>
    <path d="M871,242 Q896,222 888,202"/>
    <path d="M868,217 Q842,197 846,177"/>
    <path d="M864,192 Q888,177 880,157"/>
    <path d="M857,165 Q830,150 833,130"/>
  </g>
  <g opacity="0.28" fill="#1a5040">
    <ellipse cx="155" cy="268" rx="10" ry="3.5" transform="rotate(-28 155 268)"/>
    <ellipse cx="178" cy="272" rx="7" ry="2.5" transform="rotate(18 178 272)"/>
    <ellipse cx="735" cy="268" rx="10" ry="3.5" transform="rotate(28 735 268)"/>
    <ellipse cx="758" cy="274" rx="6" ry="2" transform="rotate(-18 758 274)"/>
  </g>

  <!-- GROUND -->
  <path d="M0,273 Q90,260 175,268 Q260,276 340,264 Q420,252 450,268 Q480,282 560,268 Q640,252 730,265 Q820,275 900,260 L900,280 L0,280 Z" fill="#020c09" opacity="0.95"/>

  <!-- THE KNIGHT SILHOUETTE -->
  <g transform="translate(138, 148)" filter="url(#softGlow)">
    <!-- Shadow under knight -->
    <ellipse cx="0" cy="72" rx="28" ry="6" fill="#7fffd4" opacity="0.06">
      <animate attributeName="rx" values="28;36;28" dur="3s" repeatCount="indefinite"/>
      <animate attributeName="opacity" values="0.06;0.13;0.06" dur="3s" repeatCount="indefinite"/>
    </ellipse>
    <!-- Body / cloak -->
    <path d="M0,0 Q-4,20 -20,72 L20,72 Q4,20 0,0" fill="#030d0a"/>
    <path d="M0,0 L-20,72" stroke="#142e24" stroke-width="0.8" opacity="0.5" fill="none"/>
    <path d="M0,0 L20,72" stroke="#142e24" stroke-width="0.8" opacity="0.5" fill="none"/>
    <!-- Head -->
    <ellipse cx="0" cy="-22" rx="18" ry="20" fill="#ddf0ea"/>
    <!-- Horn -->
    <path d="M-5,-40 Q0,-58 5,-40" fill="#ddf0ea"/>
    <!-- Eye left -->
    <ellipse cx="-6" cy="-24" rx="4.5" ry="5.5" fill="#020c09"/>
    <!-- Eye right -->
    <ellipse cx="6" cy="-24" rx="4.5" ry="5.5" fill="#020c09"/>
    <!-- Soul glow in eyes -->
    <ellipse cx="-6" cy="-24" rx="1.8" ry="2.2" fill="#7fffd4" opacity="0.35">
      <animate attributeName="opacity" values="0.35;0.85;0.35" dur="3s" repeatCount="indefinite"/>
    </ellipse>
    <ellipse cx="6" cy="-24" rx="1.8" ry="2.2" fill="#7fffd4" opacity="0.35">
      <animate attributeName="opacity" values="0.35;0.85;0.35" dur="3s" repeatCount="indefinite"/>
    </ellipse>
    <!-- Nail (Sword) -->
    <line x1="12" y1="-10" x2="38" y2="52" stroke="#b0ffe8" stroke-width="1.8" opacity="0.65"/>
    <polygon points="36,48 42,58 30,55" fill="#b0ffe8" opacity="0.65"/>
  </g>

  <!-- GOTHIC ARCH RIGHT SIDE -->
  <g transform="translate(820, 72)" opacity="0.32" fill="none" stroke="#2db88a" stroke-width="1">
    <path d="M-18,128 L-18,22 Q-18,-18 0,-18 Q18,-18 18,22 L18,128"/>
    <path d="M-9,128 L-9,26 Q-9,0 0,0 Q9,0 9,26 L9,128"/>
    <line x1="-18" y1="78" x2="18" y2="78"/>
    <circle cx="0" cy="-18" r="6" fill="#2db88a" opacity="0.5"/>
    <circle cx="0" cy="-18" r="2.5" fill="#7fffd4" opacity="0.85">
      <animate attributeName="opacity" values="0.85;0.3;0.85" dur="2.5s" repeatCount="indefinite"/>
    </circle>
  </g>

  <!-- SECONDARY ARCH LEFT -->
  <g transform="translate(78, 82)" opacity="0.22" fill="none" stroke="#2db88a" stroke-width="0.8">
    <path d="M-12,110 L-12,16 Q-12,-14 0,-14 Q12,-14 12,16 L12,110"/>
    <circle cx="0" cy="-14" r="4" fill="#2db88a" opacity="0.5"/>
    <circle cx="0" cy="-14" r="1.5" fill="#7fffd4" opacity="0.8"/>
  </g>

  <!-- MAIN TITLE - Glow layer -->
  <text x="490" y="132" text-anchor="middle" font-family="Georgia, 'Times New Roman', serif" font-size="60" font-weight="bold" fill="#7fffd4" letter-spacing="14" opacity="0.18" filter="url(#textGlow)">DALTON</text>
  <!-- Outline layer -->
  <text x="490" y="130" text-anchor="middle" font-family="Georgia, 'Times New Roman', serif" font-size="60" font-weight="bold" fill="none" stroke="#2db88a" stroke-width="1" letter-spacing="14" opacity="0.6">DALTON</text>
  <!-- Fill layer -->
  <text x="490" y="130" text-anchor="middle" font-family="Georgia, 'Times New Roman', serif" font-size="60" font-weight="bold" fill="#7fffd4" letter-spacing="14" filter="url(#textGlow)">DALTON</text>
  <!-- Pulsing overlay -->
  <text x="490" y="130" text-anchor="middle" font-family="Georgia, 'Times New Roman', serif" font-size="60" font-weight="bold" fill="#b0ffe8" letter-spacing="14" opacity="0.12">
    DALTON
    <animate attributeName="opacity" values="0.12;0.35;0.12" dur="3.5s" repeatCount="indefinite"/>
  </text>

  <!-- Decorative line under title -->
  <line x1="310" y1="148" x2="670" y2="148" stroke="#2db88a" stroke-width="0.8" opacity="0.55"/>
  <circle cx="310" cy="148" r="2.5" fill="#7fffd4" opacity="0.8"/>
  <circle cx="670" cy="148" r="2.5" fill="#7fffd4" opacity="0.8"/>
  <circle cx="490" cy="148" r="3.5" fill="#7fffd4" opacity="0.4">
    <animate attributeName="opacity" values="0.4;0.9;0.4" dur="2.5s" repeatCount="indefinite"/>
    <animate attributeName="r" values="3.5;5;3.5" dur="2.5s" repeatCount="indefinite"/>
  </circle>

  <!-- SUBTITLE -->
  <text x="490" y="174" text-anchor="middle" font-family="Georgia, serif" font-size="13.5" fill="#4db89e" letter-spacing="5" filter="url(#softGlow)">FRONTEND DEVELOPER  ·  JS  ·  REACT  ·  CSS</text>

  <!-- TAGLINE -->
  <text x="490" y="198" text-anchor="middle" font-family="Georgia, serif" font-size="10.5" fill="#2d8068" letter-spacing="2.5" font-style="italic">crafting digital worlds, one component at a time</text>

  <!-- HORIZONTAL ACCENT LINES -->
  <line x1="22" y1="140" x2="100" y2="140" stroke="#1a5040" stroke-width="0.7" opacity="0.5"/>
  <line x1="880" y1="140" x2="800" y2="140" stroke="#1a5040" stroke-width="0.7" opacity="0.5"/>
</svg>
